# xmcd
# 
# Track frame offsets:
#     150
#     14757
#     34590
#     56107
#     84167
#     102205
#     134702
#     147575
#     171420
#     198815
#     211195
#     235162
#     245927
# 
# Disc length: 3581
# 
# Revision: 2
# Processed by: cddbd v1.5.2PL0 Copyright (c) Steve Scherf et al.
# Submitted via: fre:ac v1.0.17
# 
DISCID=bf0dfb0d
DTITLE=Glenn Kaiser - Spontaneous Combustion
DYEAR=1994
DGENRE=Christian Blues
TTITLE0=Everybody Understands The Blues
TTITLE1=Trouble
TTITLE2=Through The Night
TTITLE3=Queen Bee
TTITLE4=Shufflin' The Deck
TTITLE5=If I Leave This World Tomorrow
TTITLE6=Ain't Much Difference
TTITLE7=Got A Hold On You
TTITLE8=Where Would I Be
TTITLE9=Jump Start
TTITLE10=Queen Of My Heart
TTITLE11=Satellite Dish
TTITLE12=Spontaneous Combustion
EXTD=
EXTT0=
EXTT1=
EXTT2=
EXTT3=
EXTT4=
EXTT5=
EXTT6=
EXTT7=
EXTT8=
EXTT9=
EXTT10=
EXTT11=
EXTT12=
PLAYORDER=
